<?xml version="1.0" ?><!DOCTYPE svg  PUBLIC '-//W3C//DTD SVG 1.1//EN'  'http://www.w3.org/Graphics/SVG/1.1/DTD/svg11.dtd'><svg enable-background="new 0 0 32 32" height="32px" version="1.1" viewBox="0 0 32 32" width="32px" xml:space="preserve" xmlns="http://www.w3.org/2000/svg" xmlns:xlink="http://www.w3.org/1999/xlink"><g id="Layer_1"/><g id="Layer_2"><path d="M21.264,8.985l0.065-0.226l-0.203-0.118C20.204,8.11,19.343,7.84,18.564,7.84c-1.333,0-2.145,0.78-2.6,1.434   c0.035-0.852,0.213-1.681,0.734-2.191c0.277-0.271-0.147-0.695-0.424-0.424c-1.051,1.027-0.973,3.011-0.826,4.428   c-1.339,0.164-2.382,1.294-2.382,2.676c0,1.294-0.512,2.091-1.105,3.015c-0.201,0.313-0.409,0.637-0.594,0.977   c-0.215,0.371-0.382,0.763-0.496,1.163L11.159,19l-0.313,0.017c-0.116,0.444-0.175,0.883-0.175,1.306   c0,2.814,2.29,5.104,5.104,5.104c2.815,0,5.105-2.29,5.105-5.104c0-0.433-0.06-0.875-0.171-1.285l-0.015-0.096   c-0.136-0.646-0.53-1.259-0.952-1.917c-0.589-0.918-1.258-1.958-1.258-3.261c0-1.034-0.59-1.924-1.445-2.381   c0.44,0.188,0.864,0.286,1.267,0.286C20.457,11.669,21.231,9.095,21.264,8.985z M17.886,13.763c0,1.479,0.719,2.598,1.358,3.593   c0.386,0.602,0.751,1.171,0.861,1.701l0.019,0.105c0.104,0.39,0.157,0.779,0.157,1.159c0,2.484-2.021,4.505-4.506,4.505   s-4.505-2.021-4.505-4.505c0-0.371,0.053-0.76,0.155-1.153l0.021-0.087c0.102-0.353,0.249-0.698,0.443-1.034   c0.181-0.334,0.381-0.645,0.575-0.946c0.59-0.918,1.2-1.868,1.2-3.338c0-1.163,0.946-2.109,2.109-2.109S17.886,12.6,17.886,13.763z    M16.016,10.786c0.262,0.185,0.519,0.343,0.771,0.469c-0.232-0.094-0.483-0.147-0.741-0.173   C16.036,10.984,16.026,10.889,16.016,10.786z M16.139,10.146c0.222-0.481,0.933-1.706,2.426-1.706c0.612,0,1.299,0.202,2.044,0.6   c-0.221,0.569-0.922,2.028-2.301,2.028C17.664,11.069,16.935,10.759,16.139,10.146z"/><path d="M14.11,14.428c-0.075,1.157-0.702,2.301-1.41,3.183c-0.24,0.299,0.182,0.726,0.424,0.424   c0.814-1.014,1.499-2.281,1.586-3.607C14.735,14.042,14.135,14.044,14.11,14.428z"/><path d="M14.41,13.826c0.387,0,0.387-0.6,0-0.6C14.023,13.226,14.023,13.826,14.41,13.826z"/></g></svg>